<?xml version="1.0" encoding="UTF-8"?>
<svg version="1.1" xmlns="http://www.w3.org/2000/svg" width="451" height="451">
<path d="M0 0 C3.22389532 1.31704427 5.1420507 3.70849896 7.38671875 6.2734375 C7.86939209 6.81218506 8.35206543 7.35093262 8.84936523 7.90600586 C12.68585578 12.22261048 16.33238015 16.68509257 19.953125 21.18359375 C22.28752465 24.00517245 24.71912473 26.70434462 27.19921875 29.3984375 C31.31300784 33.8682887 35.17009172 38.48888643 38.984375 43.21484375 C41.15554702 45.84552307 43.40163232 48.37786174 45.69921875 50.8984375 C49.51651515 55.09088199 53.10547976 59.4257468 56.671875 63.83203125 C61.21585896 69.34521117 65.93572628 74.70698139 70.63037109 80.09179688 C73.16834963 83.01446123 75.68472084 85.95556867 78.19921875 88.8984375 C84.12961178 87.06835528 88.56343022 82.89860279 93.31640625 79.06640625 C98.37800831 75.12217672 98.37800831 75.12217672 101.765625 74.19921875 C105.55060569 75.28671721 108.20013966 77.69894709 111.13671875 80.2109375 C112.47332996 81.31846712 113.8105845 82.42522074 115.1484375 83.53125 C115.82310059 84.09489258 116.49776367 84.65853516 117.19287109 85.23925781 C119.65808034 87.27790007 122.16694941 89.25413449 124.69360352 91.21582031 C125.86754194 92.1319853 127.03343471 93.05855061 128.19116211 93.99511719 C130.8401586 96.13124619 133.33970085 97.97856171 136.30859375 99.671875 C142.83816316 103.71314904 144.94829077 108.02011471 146.78466797 115.23535156 C147.80114971 119.83238853 148.67849645 124.44555793 149.50341797 129.08056641 C150.23260541 133.08163068 151.05114385 137.05623997 151.890625 141.03515625 C152.31679661 143.09064143 152.74025196 145.1466579 153.16195679 147.20306396 C153.56234297 149.15309793 153.96725987 151.10219992 154.37231445 153.05126953 C156.37753179 163.30885724 157.92613239 173.88235708 154.19921875 183.8984375 C152.87921875 184.2284375 151.55921875 184.5584375 150.19921875 184.8984375 C143.08395368 173.96852462 136.07517589 162.98051159 129.19921875 151.8984375 C125.65112575 152.47187158 124.10529069 153.66984272 121.6953125 156.29296875 C121.04264404 156.99534668 120.38997559 157.69772461 119.7175293 158.42138672 C119.03086182 159.17693848 118.34419434 159.93249023 117.63671875 160.7109375 C116.92362549 161.48195801 116.21053223 162.25297852 115.47583008 163.04736328 C113.37463683 165.32300504 111.28481496 167.60850228 109.19921875 169.8984375 C108.65716797 170.49285645 108.11511719 171.08727539 107.55664062 171.69970703 C106.60686853 172.74148435 105.65723393 173.78338704 104.70776367 174.82543945 C95.74460686 184.64996044 86.71025856 193.62459247 76.01074219 201.54882812 C73.4198997 203.47904069 70.85881945 205.4472494 68.29589844 207.41430664 C66.14895569 209.0620127 63.99872336 210.70533887 61.84765625 212.34765625 C58.60091902 214.8268943 55.35661198 217.30927635 52.11328125 219.79296875 C41.27887149 228.08053249 30.38551578 236.27793904 19.36230469 244.31298828 C17.26881038 245.84742982 15.18988099 247.39983481 13.11328125 248.95703125 C11.87137534 249.87538092 10.62920496 250.79337309 9.38671875 251.7109375 C8.84217041 252.12585449 8.29762207 252.54077148 7.73657227 252.96826172 C4.24039527 255.52200054 1.5706814 257.05143869 -2.80078125 256.8984375 C-5.8021641 255.39636149 -8.35052035 253.39761906 -10.98828125 251.3359375 C-12.1630603 250.45216431 -12.1630603 250.45216431 -13.36157227 249.55053711 C-15.01754266 248.30431851 -16.66841238 247.05129701 -18.31445312 245.79199219 C-21.47610969 243.38411627 -24.67800757 241.03407733 -27.8840332 238.68579102 C-30.26560566 236.94091811 -32.64138331 235.18842593 -35.015625 233.43359375 C-38.9846271 230.50075781 -42.95642476 227.57174893 -46.92993164 224.64501953 C-48.50630048 223.48372382 -50.08231167 222.32194246 -51.65795898 221.15966797 C-55.70944867 218.17162626 -59.76618145 215.19113507 -63.83203125 212.22265625 C-79.59862352 200.69854836 -94.32209556 188.86584302 -106.99609375 173.921875 C-110.21079184 170.31751653 -113.70642249 166.98301257 -117.1484375 163.59765625 C-120.061007 160.63361277 -122.704029 157.53086556 -125.265625 154.26171875 C-126.95707984 152.45576451 -126.95707984 152.45576451 -130.80078125 152.8984375 C-132.57214544 155.08281406 -134.01954213 157.14659763 -135.48828125 159.5234375 C-135.91818359 160.19334717 -136.34808594 160.86325684 -136.79101562 161.5534668 C-138.14032845 163.66065683 -139.47074457 165.77904132 -140.80078125 167.8984375 C-142.06870519 169.88913018 -143.3412886 171.87673317 -144.61645508 173.86279297 C-145.39261237 175.07398874 -146.16474161 176.28777737 -146.93237305 177.50439453 C-148.4264777 179.85834346 -149.82192542 181.91958167 -151.80078125 183.8984375 C-153.80078125 183.7734375 -153.80078125 183.7734375 -155.80078125 182.8984375 C-159.70649934 176.61361891 -157.78938421 168.45946411 -156.6640625 161.515625 C-156.54451202 160.74630142 -156.42496155 159.97697784 -156.30178833 159.18434143 C-155.91427039 156.71257301 -155.51516822 154.24290783 -155.11328125 151.7734375 C-154.97761749 150.93160919 -154.84195374 150.08978088 -154.70217896 149.22244263 C-153.03348297 138.90053965 -151.32537873 128.58262074 -149.23828125 118.3359375 C-148.97881714 116.9754126 -148.97881714 116.9754126 -148.71411133 115.58740234 C-147.55683799 110.24028886 -146.15045529 107.47869702 -141.80078125 103.8984375 C-140.82625 103.021875 -139.85171875 102.1453125 -138.84765625 101.2421875 C-137.75173948 100.29075602 -136.65261889 99.34300579 -135.55078125 98.3984375 C-134.95595947 97.88796875 -134.3611377 97.3775 -133.74829102 96.8515625 C-126.90189495 91.04239235 -119.75782645 85.62064236 -112.56201172 80.25390625 C-111.02914151 79.0741869 -109.56567284 77.80535757 -108.1171875 76.5234375 C-105.30556541 74.55103482 -104.17438887 74.52078087 -100.80078125 74.8984375 C-98.55249023 76.19946289 -98.55249023 76.19946289 -96.296875 77.99609375 C-95.47380859 78.63224609 -94.65074219 79.26839844 -93.80273438 79.92382812 C-92.08880142 81.28531485 -90.37526157 82.6472966 -88.66210938 84.00976562 C-87.84033203 84.64462891 -87.01855469 85.27949219 -86.171875 85.93359375 C-85.4286499 86.525354 -84.6854248 87.11711426 -83.91967773 87.72680664 C-81.89347632 89.09917933 -81.89347632 89.09917933 -79.68261719 88.7434082 C-76.55307365 87.3381993 -74.71267362 84.64165587 -72.61328125 82.0234375 C-72.12915771 81.43554443 -71.64503418 80.84765137 -71.14624023 80.24194336 C-69.68850479 78.46808983 -68.24346343 76.68454297 -66.80078125 74.8984375 C-65.32222187 73.08544207 -63.8430999 71.27290523 -62.36328125 69.4609375 C-61.64269531 68.57535156 -60.92210937 67.68976563 -60.1796875 66.77734375 C-56.92389645 62.83724851 -53.58672835 58.9695854 -50.24902344 55.09887695 C-47.14651494 51.49297804 -44.10619602 47.84648925 -41.11328125 44.1484375 C-37.56216059 39.77192123 -33.84280727 35.5901229 -30.046875 31.42578125 C-27.73890527 28.82881357 -25.54522262 26.16439737 -23.36328125 23.4609375 C-19.42521985 18.59181079 -15.27757711 13.96020816 -11.03515625 9.35546875 C-9.22751022 7.36769017 -7.49290033 5.35872542 -5.80078125 3.2734375 C-2.90617635 -0.16390582 -2.90617635 -0.16390582 0 0 Z " fill="#000000" transform="translate(226.80078125,44.1015625)"/>
<path d="M0 0 C5.06657144 0.19798325 7.55468655 3.12329732 10.8125 6.625 C11.87694987 7.7310528 12.94335348 8.83522872 14.01171875 9.9375 C14.52524902 10.46988281 15.0387793 11.00226563 15.56787109 11.55078125 C17.33951527 13.34356677 19.20238534 14.99606375 21.125 16.625 C22.41924255 17.74703564 23.7107548 18.87222582 25 20 C26.22009766 21.06541016 26.22009766 21.06541016 27.46484375 22.15234375 C35.51559547 29.62198858 40.17834427 37.9470925 43.4375 48.4375 C46.90310987 56.33909051 55.58884582 60.93920327 62.61328125 65.5 C64.48047387 66.72841702 66.34715649 67.95760953 68.21337891 69.1875 C69.16875549 69.81527344 70.12413208 70.44304687 71.10845947 71.08984375 C75.79966732 74.18886308 80.45212915 77.34452487 85.10546875 80.5 C86.95110047 81.74880346 88.79680363 82.99750133 90.64257812 84.24609375 C93.43839549 86.1382899 96.23364917 88.03130035 99.02758789 89.92626953 C101.80194557 91.80739256 104.57852856 93.68519214 107.35546875 95.5625 C108.17855026 96.12195313 109.00163177 96.68140625 109.84965515 97.2578125 C112.2205068 98.85849934 114.60802996 100.43109206 117 102 C117.87371246 102.59538574 118.74742493 103.19077148 119.64761353 103.80419922 C120.51969452 104.37283691 121.39177551 104.94147461 122.2902832 105.52734375 C123.07337357 106.0493335 123.85646393 106.57132324 124.6632843 107.10913086 C127.01753931 108.27238889 127.01753931 108.27238889 129.58903503 107.27270508 C132.83205958 105.5607707 135.96249298 103.70520403 139.0625 101.75 C139.75077881 101.31816406 140.43905762 100.88632812 141.14819336 100.44140625 C147.78701647 96.22468685 154.21431781 91.71939182 160.63598633 87.18139648 C165.62894166 83.65325896 170.64970427 80.18359288 175.75 76.8125 C182.94665934 72.05116754 190.07994244 67.20344818 197.16357422 62.27539062 C198.34774795 61.45298653 199.53411743 60.63373075 200.72314453 59.81835938 C202.25960878 58.76356997 203.7863754 57.69469471 205.3125 56.625 C206.15425781 56.03976562 206.99601563 55.45453125 207.86328125 54.8515625 C212.00547381 51.26216712 213.37995342 47.04444372 215 41.9375 C218.02189963 33.8730329 223.04552642 28.97921516 229 23 C230.46783829 21.34169826 231.92671936 19.67540952 233.375 18 C237.00640452 13.96874769 240.81100943 10.16485985 244.75 6.4375 C245.29317871 5.91220703 245.83635742 5.38691406 246.39599609 4.84570312 C249.48440512 1.97850507 251.74135567 0.32334151 256 0 C259.88321339 5.97847241 263.17053221 12.07368548 266.25 18.5 C266.69601562 19.39847656 267.14203125 20.29695313 267.6015625 21.22265625 C272.78815501 32.02019885 272.02945335 38.71229785 268.875 50.0625 C268.55241211 51.25738037 268.22982422 52.45226074 267.89746094 53.68334961 C261.19563663 78.20290892 261.19563663 78.20290892 257 81 C254.41114829 81.29991069 251.90850918 81.50865225 249.3125 81.625 C248.61060547 81.66367187 247.90871094 81.70234375 247.18554688 81.7421875 C245.45745345 81.8362334 243.72876325 81.9191968 242 82 C239.103777 88.19363747 236.73583535 94.42495699 234.65234375 100.93359375 C234.35437393 101.85157242 234.05640411 102.76955109 233.74940491 103.71534729 C232.80753802 106.6212776 231.87254187 109.52936744 230.9375 112.4375 C230.30706388 114.3836007 229.6762079 116.32956545 229.04492188 118.27539062 C228.43452572 120.16133858 227.82448779 122.04740253 227.21484375 123.93359375 C226.93664291 124.79431992 226.65844208 125.65504608 226.37181091 126.54185486 C224.75199809 131.5809367 223.21473457 136.63314378 221.77516174 141.72694397 C218.59907832 151.04037519 211.42446021 156.15075858 203.78076172 161.69091797 C200.81862075 163.86846114 197.94410041 166.15508823 195.0625 168.4375 C193.88170426 169.36743369 192.70071405 170.2971205 191.51953125 171.2265625 C190.34633462 172.15101686 189.17315729 173.07549571 188 174 C178.91950417 181.15210391 169.81250076 188.26915038 160.68359375 195.359375 C157.48459735 197.84426764 154.2897256 200.33434064 151.09765625 202.828125 C150.29618164 203.45356201 149.49470703 204.07899902 148.66894531 204.72338867 C147.1452888 205.91254164 145.62244569 207.10273788 144.10058594 208.29418945 C142.72211837 209.36914561 141.33805357 210.43697341 139.94775391 211.49658203 C138.66730065 212.48492888 137.40788654 213.50126258 136.17333984 214.54638672 C133.24272084 216.91452252 131.38272509 217.97676469 127.58984375 218.20703125 C122.7461668 216.57841735 119.46203044 213.92632397 115.5625 210.6875 C113.96068876 209.39842959 112.35780414 208.11069196 110.75390625 206.82421875 C109.95484863 206.17759277 109.15579102 205.5309668 108.33251953 204.86474609 C104.94915147 202.15989313 101.48120389 199.57687002 98 197 C90.00969625 191.04677157 82.15060586 184.93083977 74.29980469 178.79541016 C71.21683911 176.38860242 68.12784256 173.98959982 65.03881836 171.59057617 C62.06629657 169.28136271 59.09603278 166.96926032 56.12646484 164.65625 C54.71828196 163.55945176 53.30975785 162.46309148 51.90087891 161.3671875 C49.95305261 159.85112236 48.00743622 158.33227009 46.0625 156.8125 C45.48918945 156.36688721 44.91587891 155.92127441 44.32519531 155.4621582 C39.62430038 151.78036344 36.91525352 149.52276338 35.0546875 143.76928711 C34.70422363 142.70064926 34.35375977 141.63201141 33.99267578 140.5309906 C33.62384277 139.37478714 33.25500977 138.21858368 32.875 137.02734375 C32.48683105 135.83452286 32.09866211 134.64170197 31.69873047 133.41273499 C30.6674612 130.23753642 29.64427979 127.0599553 28.62475586 123.88098145 C27.79893398 121.31202676 26.96556842 118.74555258 26.13168335 116.17920589 C24.39495549 110.83419136 22.66458131 105.48713062 20.9453125 100.13647461 C20.61176758 99.10158905 20.27822266 98.06670349 19.93457031 97.00045776 C18.79320822 93.33609062 17.77611447 89.64196773 16.80419922 85.92921448 C16.05863437 83.63856828 16.05863437 83.63856828 13 82 C9.44591187 81.69770818 5.91315876 81.62154521 2.34765625 81.5390625 C-1.64330157 80.89641118 -2.46903287 80.06125886 -5 77 C-6.14086914 74.34960938 -6.14086914 74.34960938 -7.03515625 71.34375 C-7.36966797 70.23773438 -7.70417969 69.13171875 -8.04882812 67.9921875 C-8.5505957 66.26355469 -8.5505957 66.26355469 -9.0625 64.5 C-9.40087891 63.37851562 -9.73925781 62.25703125 -10.08789062 61.1015625 C-17.89567764 34.94472089 -17.89567764 34.94472089 -13 24.5 C-12.6911084 23.81800537 -12.3822168 23.13601074 -12.06396484 22.43334961 C-3.22007398 3.22007398 -3.22007398 3.22007398 0 0 Z " fill="#000000" transform="translate(98,218)"/>
<path d="M0 0 C1.26761421 0.54418579 1.26761421 0.54418579 2.56083679 1.09936523 C5.2838913 2.27029129 8.00336747 3.44926447 10.72265625 4.62890625 C12.61690548 5.44632135 14.51127496 6.26345783 16.40576172 7.08032227 C29.87623429 12.89672351 43.32205751 18.76761588 56.69726562 24.80029297 C58.84793689 25.7691833 61.00042364 26.73404956 63.15429688 27.69580078 C66.49302186 29.18681258 69.8271363 30.6876916 73.16015625 32.19140625 C74.15998535 32.63669678 75.15981445 33.0819873 76.18994141 33.54077148 C87.25476657 38.57067504 87.25476657 38.57067504 90.0078125 43.28515625 C93.28658826 52.67923006 94.99975628 62.42480915 96.78515625 72.19140625 C101.75095389 68.73572991 104.82010797 64.36196315 108.28515625 59.50390625 C109.52730329 57.78939112 110.7708231 56.07586982 112.015625 54.36328125 C112.64259277 53.49896484 113.26956055 52.63464844 113.91552734 51.74414062 C117.27770441 47.15352644 120.75128176 42.64934514 124.22485352 38.14282227 C126.64575504 34.99867314 129.0512599 31.84894124 131.38671875 28.640625 C135.15605254 23.47827655 138.57113454 18.93480645 143.78515625 15.19140625 C143.24691244 25.47634701 141.42411032 35.41667986 139.51171875 45.51171875 C139.18366152 47.26416221 138.85598097 49.01667621 138.52865601 50.76925659 C137.84492594 54.42259672 137.15694797 58.0751031 136.46582031 61.72705078 C135.58497234 66.38315065 134.71442617 71.04110574 133.84700966 75.6997242 C133.17323762 79.31235782 132.49419387 82.92398533 131.81357956 86.53533554 C131.49071114 88.2516652 131.16939095 89.96828693 130.84972 91.685215 C126.74612574 113.68291415 126.74612574 113.68291415 124.78515625 117.19140625 C122.79263306 117.98684692 122.79263306 117.98684692 120.78515625 118.19140625 C119.13671875 117.3984375 119.13671875 117.3984375 117.41015625 116.00390625 C116.71792969 115.44960937 116.02570313 114.8953125 115.3125 114.32421875 C110.95803304 110.64950629 106.62894411 106.94646552 102.31640625 103.22265625 C97.55006768 99.11658969 92.68940322 95.13137732 87.78515625 91.19140625 C86.93566406 90.50691406 86.08617187 89.82242188 85.2109375 89.1171875 C84.41042969 88.48167969 83.60992187 87.84617187 82.78515625 87.19140625 C82.08390625 86.63453125 81.38265625 86.07765625 80.66015625 85.50390625 C78.71526297 84.00979168 78.71526297 84.00979168 75.78515625 83.19140625 C73.60531654 84.61645382 71.66675287 86.05064363 69.66015625 87.69140625 C69.08265625 88.14757324 68.50515625 88.60374023 67.91015625 89.07373047 C65.27992026 91.15527001 62.68539996 93.27429413 60.10546875 95.41796875 C59.33976563 96.04445313 58.5740625 96.6709375 57.78515625 97.31640625 C57.12515625 97.87585938 56.46515625 98.4353125 55.78515625 99.01171875 C53.09818253 100.59661341 51.85941753 100.83111032 48.78515625 100.19140625 C46.6350017 98.30251349 44.882019 96.53072797 43.03515625 94.37890625 C42.24419556 93.49029907 42.24419556 93.49029907 41.43725586 92.58374023 C37.55846669 88.19178096 33.87046749 83.65117927 30.203125 79.08203125 C26.25025869 74.35647217 22.00684358 69.90600714 17.79296875 65.4140625 C14.94290055 62.37346294 12.18026814 59.26792201 9.45703125 56.11328125 C7.42757552 53.78035551 5.35750925 51.4862938 3.28515625 49.19140625 C-1.608523 43.76312339 -6.43342764 38.28368359 -11.17578125 32.72265625 C-11.70647217 32.10100586 -12.23716309 31.47935547 -12.78393555 30.83886719 C-13.84170722 29.59871008 -14.8979276 28.35722771 -15.95239258 27.11425781 C-18.59728475 24.01218641 -21.27659891 21.02446333 -24.21484375 18.19140625 C-28.61226758 19.56034341 -30.51341869 21.36660218 -33.27734375 25.00390625 C-36.75209531 29.42684293 -40.36093423 33.59597937 -44.21484375 37.69140625 C-48.69522866 42.47334876 -52.89945453 47.39967599 -57.00390625 52.51171875 C-59.32419325 55.3239394 -61.74555509 58.00937888 -64.21484375 60.69140625 C-67.48902798 64.24810869 -70.62126808 67.86302436 -73.65234375 71.62890625 C-77.78261638 76.74605818 -82.16369041 81.57255056 -86.6328125 86.390625 C-88.84710956 88.79251758 -91.01337046 91.22265549 -93.15234375 93.69140625 C-95.41193667 96.29862885 -97.72370723 98.79991519 -100.21484375 101.19140625 C-105.31437335 99.58470514 -109.10250534 96.47209058 -113.27734375 93.25390625 C-113.98439453 92.71572266 -114.69144531 92.17753906 -115.41992188 91.62304688 C-116.10634766 91.10033203 -116.79277344 90.57761719 -117.5 90.0390625 C-118.15500488 89.54293457 -118.81000977 89.04680664 -119.48486328 88.53564453 C-120.82986882 87.49054144 -122.12549 86.38176191 -123.3984375 85.25 C-125.22053805 83.9696489 -125.22053805 83.9696489 -127.68359375 84.29296875 C-130.58001283 85.32101873 -132.36124046 86.59163636 -134.71484375 88.56640625 C-135.58238281 89.28699219 -136.44992188 90.00757812 -137.34375 90.75 C-138.29121094 91.55566406 -139.23867187 92.36132812 -140.21484375 93.19140625 C-141.26534365 94.07845829 -142.31613395 94.96516653 -143.3671875 95.8515625 C-145.01705054 97.24507625 -146.66552941 98.64011785 -148.31079102 100.0390625 C-152.77300232 103.83276539 -157.28562544 107.56002689 -161.84375 111.23828125 C-163.82877404 112.87339166 -165.70460977 114.57028623 -167.58984375 116.31640625 C-170.21484375 118.19140625 -170.21484375 118.19140625 -172.87890625 117.80859375 C-173.64976562 117.60492188 -174.420625 117.40125 -175.21484375 117.19140625 C-178.7413335 103.88084068 -181.48251102 90.44578687 -184.15234375 76.94140625 C-184.3710614 75.84033539 -184.58977905 74.73926453 -184.81512451 73.60482788 C-187.40033058 60.58591944 -189.96630975 47.56330504 -192.33984375 34.50390625 C-192.63942993 32.8801709 -192.63942993 32.8801709 -192.94506836 31.22363281 C-193.84650707 26.1295238 -194.43191426 21.36491999 -194.21484375 16.19140625 C-193.22484375 16.19140625 -192.23484375 16.19140625 -191.21484375 16.19140625 C-189.27373639 18.50311626 -187.52081162 20.79907655 -185.77734375 23.25390625 C-184.7013776 24.73074194 -183.62319509 26.20596505 -182.54296875 27.6796875 C-181.99189453 28.43330566 -181.44082031 29.18692383 -180.87304688 29.96337891 C-178.3448535 33.36035958 -175.69340129 36.65223727 -173.02734375 39.94140625 C-167.93503764 46.25015299 -163.04239755 52.67680409 -158.21484375 59.19140625 C-156.53016927 61.44352936 -154.84128618 63.6924829 -153.15234375 65.94140625 C-151.83984375 67.69140625 -150.52734375 69.44140625 -149.21484375 71.19140625 C-146.83296888 67.61859394 -146.25370792 64.19160028 -145.40234375 60.06640625 C-143.30531351 50.60237427 -140.4291989 43.89575813 -133.21484375 37.19140625 C-130.4453125 35.54492188 -130.4453125 35.54492188 -127.40234375 34.09765625 C-126.25878418 33.54867676 -125.11522461 32.99969727 -123.93701172 32.43408203 C-122.69652948 31.85267688 -121.45580019 31.27179858 -120.21484375 30.69140625 C-118.92309445 30.07847915 -117.63159468 29.46502591 -116.34033203 28.85107422 C-98.53637554 20.41952405 -80.56807758 12.29930871 -62.34838867 4.80639648 C-58.0697793 3.03238568 -53.98842673 1.07169947 -49.90234375 -1.12109375 C-32.66792705 -9.95493583 -16.91658681 -7.36407164 0 0 Z " fill="#000000" transform="translate(251.21484375,21.80859375)"/>
<path d="M0 0 C1.59195228 -0.00302261 3.1839031 -0.00691265 4.77585137 -0.01159257 C9.13950305 -0.02186713 13.50307252 -0.01969212 17.86673093 -0.01541197 C22.57712771 -0.01294377 27.28750475 -0.02196008 31.99789429 -0.02944946 C41.22181637 -0.04219582 50.44570933 -0.04399023 59.66963874 -0.0416492 C67.16745904 -0.03986583 74.66527051 -0.04161609 82.16308975 -0.04587364 C83.23040804 -0.04646883 84.29772633 -0.04706402 85.3973876 -0.04767724 C87.56568002 -0.048889 89.73397243 -0.05010314 91.90226485 -0.05131962 C112.23446475 -0.0621949 132.56664807 -0.06003271 152.89884891 -0.05393478 C171.49580218 -0.04876551 190.09270308 -0.06002135 208.68964599 -0.07903299 C227.7894221 -0.09840887 246.88917343 -0.10666784 265.98895943 -0.10290974 C276.71025639 -0.10099734 287.43150876 -0.10348916 298.1527977 -0.11762428 C307.27983335 -0.12953583 316.40679697 -0.13094548 325.53383361 -0.11883412 C330.18923746 -0.1129439 334.84450954 -0.11185 339.49990463 -0.12383652 C343.76480111 -0.13468987 348.02945572 -0.13159847 352.29434086 -0.11757483 C353.83397325 -0.11492641 355.37362457 -0.11729903 356.91323839 -0.1253107 C370.81542002 -0.19260965 380.28202384 1.59353442 390.54885864 11.22944641 C398.8022468 19.74509176 402.56717558 30.05474992 402.58542347 41.80825138 C402.5877757 42.45538419 402.59012793 43.102517 402.59255144 43.7692599 C402.59921559 45.94066247 402.598784 48.11200483 402.59837341 50.28341675 C402.60167365 51.85485437 402.60539955 53.42629115 402.60951489 54.99772686 C402.61952484 59.31866523 402.62325007 63.63958971 402.6259042 67.96053803 C402.62981022 72.61989756 402.63938834 77.27924612 402.64811707 81.93859863 C402.6678728 93.19213711 402.67794645 104.44567648 402.68684486 115.69922796 C402.69122912 120.99993489 402.69659556 126.30064083 402.70183372 131.60134697 C402.71884493 149.22404682 402.73333895 166.84674606 402.74058247 184.46945286 C402.74249233 189.04187585 402.74441267 193.61429883 402.74636841 198.1867218 C402.74685215 199.32316141 402.74733589 200.45960102 402.74783429 201.6304782 C402.75613404 220.03875201 402.78147054 238.44696083 402.81394909 256.85520626 C402.84702854 275.75827124 402.86503202 294.6613032 402.86822671 313.56439728 C402.87039095 324.17627902 402.87912719 334.78806599 402.90468788 345.39991951 C402.92640693 354.43767994 402.93443933 363.47532255 402.9247211 372.51310612 C402.92017995 377.12220109 402.92205192 381.73105304 402.94148254 386.34011459 C402.95914016 390.56519696 402.95809556 394.78985947 402.94258525 399.01494645 C402.94021312 400.53788577 402.94451217 402.06085435 402.9564139 403.583749 C403.06042357 417.77943824 400.16115525 430.70723623 390.41604614 441.51850891 C380.61746616 450.88505274 370.48540275 451.84989533 357.43411255 451.76863098 C355.81568148 451.77324528 354.19725462 451.77960173 352.57883644 451.78753996 C348.15120404 451.80418388 343.72391806 451.79600949 339.29628468 451.78359509 C334.5136516 451.77452664 329.73107715 451.78852322 324.94845581 451.79951477 C315.58707749 451.81728542 306.22582757 451.81346647 296.86444426 451.80186421 C289.2551083 451.79282445 281.64580829 451.79160824 274.03646851 451.79595947 C272.95276903 451.7965724 271.86906955 451.79718534 270.75253069 451.79781684 C268.55089934 451.79909577 266.34926799 451.80039262 264.14763665 451.80170721 C243.5111478 451.81310875 222.87473007 451.80000597 202.23825288 451.77850574 C184.53771606 451.76063516 166.83728419 451.76373939 149.13674927 451.78218079 C128.57324941 451.803595 108.00981186 451.81201015 87.44630241 451.79973173 C85.25284705 451.79845756 83.05939167 451.79720007 80.86593628 451.79595947 C79.24717494 451.79503382 79.24717494 451.79503382 77.59571135 451.79408947 C69.9970097 451.79063823 62.39834762 451.79646005 54.7996521 451.80587769 C45.53722639 451.81710515 36.27493625 451.81404184 27.01252604 451.79275471 C22.28822018 451.78225442 17.56414022 451.7781051 12.83983612 451.79135132 C8.51203155 451.80330214 4.18466151 451.79666849 -0.14310384 451.77544111 C-1.70555228 451.77098643 -3.26803771 451.77321577 -4.83046222 451.78294426 C-17.92015373 451.85817243 -26.7678885 449.84878719 -36.35739136 440.60444641 C-48.22911514 427.90741562 -48.7018874 410.96066463 -48.68251038 394.49136353 C-48.68438022 392.98404658 -48.68668162 391.47673011 -48.6893757 389.96941441 C-48.6954787 385.83960561 -48.69536187 381.70981709 -48.69418132 377.58000481 C-48.69397694 373.12109258 -48.69949973 368.6621868 -48.70423889 364.20327759 C-48.71253795 355.4716561 -48.7152934 346.74004137 -48.71585127 338.00841627 C-48.71632682 330.90869812 -48.71838349 323.8089822 -48.7215519 316.70926476 C-48.73035671 296.56884704 -48.73497158 276.42843464 -48.73422142 256.28801499 C-48.73418146 255.20271323 -48.73414151 254.11741148 -48.73410034 252.9992218 C-48.73403902 251.36927536 -48.73403902 251.36927536 -48.73397646 249.70640071 C-48.73357012 232.1008644 -48.74313719 214.49534949 -48.75723871 196.88981936 C-48.77161237 178.8013933 -48.77850834 160.71297767 -48.77764493 142.62454575 C-48.77731329 132.47381225 -48.78004604 122.32310117 -48.79082298 112.17237282 C-48.79994105 103.52889364 -48.80209253 94.88544706 -48.79531356 86.24196515 C-48.79205486 81.83532139 -48.79196812 77.42874012 -48.80066681 73.02210236 C-48.8085616 68.98099632 -48.80707015 64.94000203 -48.79838268 60.89889862 C-48.79685421 59.44400306 -48.79863894 57.98909903 -48.80424275 56.53421346 C-48.86542315 39.51050377 -47.22244538 23.85110868 -35.78707886 10.45600891 C-25.43845868 0.30605335 -13.67281472 -0.03674815 0 0 Z M-29.91598511 16.36616516 C-35.96864961 24.72385993 -39.66668923 33.22664013 -39.68301868 43.60432339 C-39.68747653 44.91751063 -39.69193437 46.23069787 -39.6965273 47.58367866 C-39.69643801 49.04465704 -39.69624816 50.50563542 -39.69596863 51.96661377 C-39.69926802 53.51585166 -39.70299375 55.06508869 -39.70711011 56.61432463 C-39.71712996 60.87858388 -39.72084689 65.14282906 -39.72349942 69.40709841 C-39.7274026 74.00378113 -39.73698104 78.6004527 -39.74571228 83.1971283 C-39.76547797 94.30277548 -39.77554377 105.40842357 -39.78444007 116.51408395 C-39.78882346 121.7449303 -39.7941902 126.97577563 -39.79942894 132.20662117 C-39.81644256 149.5976627 -39.83093591 166.98870359 -39.83817768 184.37975216 C-39.84008756 188.89320819 -39.84200789 193.40666422 -39.84396362 197.92012024 C-39.84444736 199.04190997 -39.8449311 200.16369969 -39.8454295 201.31948305 C-39.85372668 219.48465057 -39.87905774 237.64975217 -39.9115443 255.81489091 C-39.94463161 274.46819634 -39.96262802 293.1214683 -39.96582192 311.77480322 C-39.96798564 322.24644498 -39.97671396 332.71799066 -40.0022831 343.18960381 C-40.02401304 352.10951538 -40.03202927 361.02930754 -40.02231631 369.94924258 C-40.01777806 374.49769776 -40.0196301 379.04590668 -40.03907776 383.59432793 C-40.05675658 387.76522513 -40.05567373 391.93569727 -40.04018047 396.10659928 C-40.03781151 397.60872511 -40.04209072 399.11088075 -40.05400912 400.61296117 C-40.15778381 414.56548837 -38.03113615 426.47871004 -28.11129761 436.74897766 C-19.94813318 444.26884924 -10.35219973 443.69057965 0.01345825 443.64164734 C1.60683735 443.64510633 3.20021406 443.64987251 4.79358578 443.65582907 C9.16113899 443.66833559 13.52849517 443.66217027 17.89604902 443.65287042 C22.61050205 443.64607885 27.32492136 443.65656169 32.03936768 443.66481018 C41.27065595 443.67814854 50.50187103 443.6752693 59.73316216 443.66657226 C67.23576982 443.65979654 74.73835696 443.65887851 82.2409668 443.66214371 C83.30886253 443.66260341 84.37675827 443.66306311 85.47701448 443.66353673 C87.64643837 443.66449591 89.81586224 443.66546855 91.98528612 443.66645451 C112.3269738 443.67500871 132.66862092 443.66517379 153.01030195 443.64905341 C170.46360418 443.63565021 187.91684655 443.63797829 205.37014771 443.65180969 C225.63915397 443.66786497 245.90812469 443.67418473 266.17713642 443.6649729 C268.33857027 443.66401726 270.50000413 443.66307414 272.66143799 443.66214371 C273.72489895 443.66168088 274.78835992 443.66121805 275.88404697 443.6607412 C283.37745927 443.65815116 290.87084901 443.66252263 298.36425781 443.66958237 C307.4964794 443.67799697 316.62862363 443.67571803 325.76083636 443.65974014 C330.42003941 443.65185692 335.07911349 443.64876673 339.73831558 443.65868759 C344.00434691 443.66763388 348.27012983 443.66270271 352.53613865 443.64675494 C354.07842486 443.64340686 355.6207321 443.64510182 357.16300476 443.6523823 C367.93732164 443.69933782 376.33752698 443.11976097 384.56057739 435.47944641 C393.91706307 424.49910785 394.75014211 411.87935963 394.71862793 398.14968872 C394.72236742 396.60524689 394.72697013 395.06080695 394.73235857 393.51637 C394.74456717 389.28393077 394.74433063 385.05157071 394.74196982 380.8191179 C394.74156111 376.24976602 394.75260603 371.68043934 394.76208496 367.11109924 C394.77868447 358.16290351 394.78419404 349.21473413 394.78530972 340.26652429 C394.78626074 332.99088795 394.79037375 325.71526029 394.79671097 318.43962669 C394.81432094 297.80116794 394.82355028 277.16272998 394.82205002 256.52426366 C394.82197011 255.41207895 394.8218902 254.29989424 394.82180786 253.15400696 C394.82168522 251.48368722 394.82168522 251.48368722 394.8215601 249.77962365 C394.82074739 231.7375701 394.83988187 213.69560008 394.86808459 195.65357069 C394.89683014 177.11765529 394.91062395 158.5817806 394.90889704 140.04584235 C394.90823369 129.64357106 394.91370183 119.24138731 394.93525314 108.83913612 C394.95348696 99.9815309 394.95779423 91.12405292 394.9442343 82.26643703 C394.93771562 77.7503626 394.93754755 73.23453211 394.9549408 68.71848106 C394.97072551 64.57734147 394.96775323 60.43663813 394.95037253 56.29550882 C394.94731445 54.80427286 394.95088969 53.3130039 394.96209268 51.82180689 C395.05112727 39.12077468 393.57676557 26.79908268 384.45120239 17.26069641 C378.66276493 11.53629033 374.10984654 9.01444784 365.77312183 9.00063419 C365.11188284 8.99682852 364.45064385 8.99302285 363.76936731 8.98910186 C361.54993643 8.97878173 359.3307611 8.98269296 357.11131287 8.98654175 C355.50544983 8.98208956 353.899589 8.97677558 352.29373139 8.97067302 C347.87770358 8.95648012 343.46174611 8.95482998 339.04569876 8.95526993 C334.2841182 8.95362285 329.52256671 8.94055834 324.76100159 8.92907715 C314.34773561 8.90621919 303.93448999 8.89830563 293.52120233 8.8932507 C287.0192047 8.88999452 280.51721301 8.88347249 274.01521873 8.87624931 C256.01335115 8.8566821 238.01148908 8.84027868 220.00961018 8.83737278 C218.85743301 8.83718521 217.70525585 8.83699764 216.51816423 8.83680439 C214.18241036 8.83643814 211.84665649 8.83607444 209.51090262 8.83571327 C208.3514286 8.83553046 207.19195457 8.83534765 205.99734497 8.8351593 C204.83645582 8.83497875 203.67556667 8.8347982 202.47949906 8.83461218 C183.66892921 8.83107055 164.85847384 8.80404933 146.04794369 8.76666141 C126.73581904 8.72858369 107.42375121 8.70921534 88.11158818 8.70891327 C77.26836375 8.70832857 66.42527586 8.69982836 55.58208656 8.6709156 C46.34881404 8.64640889 37.11572786 8.63911406 27.8824316 8.65416313 C23.17227685 8.66133498 18.46249011 8.6604627 13.75237656 8.63775253 C9.43726419 8.61714643 5.12280241 8.61977795 0.80769696 8.64062738 C-0.75019956 8.64411917 -2.30814318 8.63922535 -3.86597797 8.62492294 C-13.95020936 8.53833482 -22.11824756 9.43055371 -29.91598511 16.36616516 Z " fill="#FDFDFD" transform="translate(48.548797607421875,-0.2606964111328125)"/>
</svg>
